<svg width="66" height="72" viewBox="0 0 66 72" fill="none" xmlns="http://www.w3.org/2000/svg">
<path d="M11.9431 15.7623C13.0821 14.0182 14.5646 12.5245 16.3002 11.3726L16.5826 11.1852C26.7768 4.41924 40.0492 4.48538 50.1755 11.3526C51.8931 12.5174 53.3517 14.0243 54.4599 15.779L55.3269 17.1517C61.8355 27.4571 61.7709 40.6033 55.1611 50.8442C53.5946 53.2713 51.4894 55.3043 49.0091 56.7853L44.7336 59.3381C43.1316 60.2947 41.7012 61.513 40.5018 62.9424L33.4352 71.3644L26.6561 63.1654C25.3539 61.5905 23.7753 60.2663 21.9978 59.2581L17.4719 56.6908C14.9717 55.2726 12.8384 53.2886 11.2428 50.8977C4.4236 40.6794 4.35728 27.3785 11.0743 17.0927L11.9431 15.7623Z" fill="#BCABAE"/>
</svg>
