<svg width="22" height="13" viewBox="0 0 22 13" fill="none" xmlns="http://www.w3.org/2000/svg">
<path d="M7.1665 4.33325L7.1665 8.66657L4.33321 8.66657L4.33321 4.33325L7.1665 4.33325Z" fill="#FF004D"/>
<path d="M19.4998 11.9166L19.4998 9.74996L20.5832 9.74996C21.1248 9.74996 21.6665 9.2083 21.6665 8.66663L21.6665 4.33332C21.6665 3.79165 21.1248 3.24999 20.5832 3.24999L19.4998 3.24999L19.4998 1.08333C19.4998 0.541664 18.9582 -1.18385e-07 18.4165 -1.42061e-07L1.08325 -8.99723e-07C0.541582 -9.234e-07 -8.20397e-05 0.541664 -8.20633e-05 1.08333L-8.25369e-05 11.9166C-8.25606e-05 12.4583 0.541582 12.9999 1.08325 12.9999L18.4165 12.9999C18.9582 12.9999 19.4998 12.4583 19.4998 11.9166ZM2.16658 10.8333L2.16658 2.16666L17.3332 2.16666L17.3332 10.8333L2.16658 10.8333Z" fill="#FF004D"/>
</svg>
