<svg width="22" height="15" viewBox="0 0 22 15" fill="none" xmlns="http://www.w3.org/2000/svg">
<path fill-rule="evenodd" clip-rule="evenodd" d="M10.3502 0.315934C10.8025 -0.356547 11.7719 0.138932 11.6103 0.91754L10.7056 5.80148H13.2905C13.8719 5.80148 14.1951 6.5448 13.8719 7.04027L8.6378 14.684C8.18547 15.3564 7.21611 14.861 7.37771 14.0824L7.39299 13.9999H7.39292L7.79426 11.8332H7.79433L8.28239 9.19842H5.69755C5.11586 9.16312 4.79287 8.45535 5.14831 7.92462L8.40127 3.16661H8.40119L9.88249 0.999949H9.88257L10.3502 0.315934ZM17.3332 11.8332H12.4078L10.9241 13.9999H18.4165C18.9582 13.9999 19.4998 13.4582 19.4998 12.9166V10.7499H20.5832C21.1248 10.7499 21.6665 10.2082 21.6665 9.66658V5.33327C21.6665 4.7916 21.1248 4.24994 20.5832 4.24994H19.4998V2.08328C19.4998 1.54161 18.9582 0.999949 18.4165 0.999949H13.1145C13.107 1.067 13.0965 1.13472 13.0829 1.20299L12.7191 3.16661L17.3332 3.16661V11.8332ZM5.905 13.7969C5.8914 13.8652 5.88091 13.9329 5.87338 13.9999H1.08325C0.541581 13.9999 -8.25606e-05 13.4582 -8.25369e-05 12.9166L-8.20633e-05 2.08328C-8.20397e-05 1.54161 0.541582 0.999949 1.08325 0.999949H8.06543L6.58413 3.16661L2.16658 3.16661L2.16658 11.8332H6.26874L5.905 13.7969Z" fill="black"/>
</svg>
