<svg width="200" height="200" viewBox="0 0 200 200" fill="none" xmlns="http://www.w3.org/2000/svg">
<path d="M0 100C0 25 25 0 100 0C175 0 200 25 200 100C200 175 175 200 100 200C25 200 0 175 0 100Z" fill="#2DE3EC"/>
<path fill-rule="evenodd" clip-rule="evenodd" d="M150.499 193.981C137.013 198.16 120.347 200 99.9999 200C64.2631 200 39.8784 194.324 24.1414 180.267C26.5897 179.172 29.303 178.563 32.1585 178.563C41.6829 178.563 51.6217 175.039 60.9464 169.072C58.6479 167.936 56.3867 166.592 54.1852 165.015C40.6494 155.325 33.0127 139.49 30.8398 119.638C26.8486 83.1749 60.6809 52.8848 98.5329 52.2153C99.1603 52.0975 100.264 51.8952 101.379 51.7381C104.736 51.2651 109.279 50.9935 114.737 52.0096C125.711 54.0531 136.866 60.6001 148.798 72.9434L153.254 77.5525L154.136 83.9021C155.751 95.5341 152.298 105.579 145.648 113.044C147.503 117.36 148.582 122.251 148.582 127.686C148.582 135.91 144.987 142.632 141.72 147.11C138.273 151.837 133.859 155.919 129.272 159.284C126.691 161.178 123.878 162.974 120.883 164.623C121.43 165.334 121.986 166.051 122.551 166.772C126.847 172.259 131.036 177.184 134.943 181.102C139.036 185.207 141.915 187.28 143.489 188.071C146.357 189.512 148.72 191.56 150.499 193.981ZM97.7638 52.3534C97.7671 52.3519 97.8251 52.3419 97.9281 52.3276C97.8121 52.3477 97.7606 52.3548 97.7638 52.3534Z" fill="white"/>
<path d="M128.382 93.2253C115.997 130.229 113.895 162.883 123.688 166.161C133.48 169.438 151.458 142.098 163.843 105.094C176.228 68.0899 178.33 35.4356 168.538 32.1582C158.745 28.8808 140.767 56.2215 128.382 93.2253Z" fill="white"/>
<path fill-rule="evenodd" clip-rule="evenodd" d="M115.818 159.242C116.858 163.565 118.899 167.52 122.796 168.824C126.693 170.128 130.703 168.199 134.136 165.373C137.701 162.438 141.434 157.911 145.139 152.276C152.574 140.969 160.259 124.648 166.506 105.985C172.752 87.3215 176.44 69.6623 177.309 56.1588C177.742 49.4284 177.487 43.5661 176.407 39.0763C175.367 34.7536 173.326 30.7992 169.429 29.4949C165.532 28.1905 161.521 30.1195 158.089 32.9453C154.523 35.8803 150.791 40.408 147.085 46.0432C139.651 57.3493 131.965 73.6704 125.719 92.3338C119.472 110.997 115.785 128.656 114.916 142.16C114.482 148.89 114.738 154.753 115.818 159.242ZM123.687 166.161C113.895 162.883 115.997 130.229 128.382 93.2252C140.767 56.2213 158.745 28.8807 168.537 32.158C178.329 35.4354 176.228 68.0898 163.843 105.094C151.458 142.097 133.479 169.438 123.687 166.161Z" fill="black"/>
<ellipse cx="152.715" cy="112.546" rx="9.57268" ry="31.1112" transform="rotate(17.4512 152.715 112.546)" fill="black"/>
<path d="M56.1288 94.5429C52.9719 133.436 65.4975 166.19 84.1055 167.701C102.713 169.211 120.357 138.906 123.514 100.012C126.671 61.1189 114.145 28.3651 95.5375 26.8547C76.9295 25.3444 59.2857 55.6494 56.1288 94.5429Z" fill="white"/>
<path fill-rule="evenodd" clip-rule="evenodd" d="M59.333 146.144C64.4948 159.642 72.8785 169.607 83.8791 170.5C94.8796 171.393 104.761 162.91 112.032 150.421C119.417 137.736 124.709 120.01 126.314 100.24C127.919 80.4693 125.555 62.1225 120.312 48.412C115.15 34.9139 106.766 24.9487 95.7655 24.0558C84.7649 23.1629 74.8839 31.6457 67.6127 44.1346C60.2271 56.82 54.9351 74.5455 53.3304 94.3159C51.7257 114.086 54.0899 132.433 59.333 146.144ZM84.1062 167.701C65.4983 166.19 52.9727 133.437 56.1295 94.5431C59.2864 55.6496 76.9303 25.3446 95.5383 26.8549C114.146 28.3653 126.672 61.1191 123.515 100.013C120.358 138.906 102.714 169.211 84.1062 167.701Z" fill="black"/>
<ellipse cx="103.421" cy="104.257" rx="21.0628" ry="40.7213" fill="black"/>
</svg>
